<mxfile host="app.diagrams.net" modified="2023-05-18T13:11:12.874Z" agent="Mozilla/5.0 (Windows NT 10.0; Win64; x64) AppleWebKit/537.36 (KHTML, like Gecko) Chrome/113.0.0.0 Safari/537.36 Edg/113.0.1774.42" etag="GUdyvgbzqsGZOTIlK7cj" version="21.3.2" type="github">
  <diagram name="第 1 页" id="hoYDAbHyzX93QmwIXgxS">
    <mxGraphModel dx="1379" dy="796" grid="1" gridSize="10" guides="1" tooltips="1" connect="1" arrows="1" fold="1" page="1" pageScale="1" pageWidth="827" pageHeight="1169" math="0" shadow="0">
      <root>
        <mxCell id="0" />
        <mxCell id="1" parent="0" />
        <mxCell id="R4QsOeEvtsYIWJrgmaSn-1" value="load balancer" style="rounded=0;whiteSpace=wrap;html=1;" vertex="1" parent="1">
          <mxGeometry x="310" y="430" width="200" height="60" as="geometry" />
        </mxCell>
        <mxCell id="R4QsOeEvtsYIWJrgmaSn-3" value="application server" style="rounded=0;whiteSpace=wrap;html=1;" vertex="1" parent="1">
          <mxGeometry x="250" y="530" width="60" height="70" as="geometry" />
        </mxCell>
        <mxCell id="R4QsOeEvtsYIWJrgmaSn-4" value="application server" style="rounded=0;whiteSpace=wrap;html=1;" vertex="1" parent="1">
          <mxGeometry x="320" y="530" width="60" height="70" as="geometry" />
        </mxCell>
        <mxCell id="R4QsOeEvtsYIWJrgmaSn-5" value="application server" style="rounded=0;whiteSpace=wrap;html=1;" vertex="1" parent="1">
          <mxGeometry x="410" y="530" width="60" height="70" as="geometry" />
        </mxCell>
        <mxCell id="R4QsOeEvtsYIWJrgmaSn-6" value="application server" style="rounded=0;whiteSpace=wrap;html=1;" vertex="1" parent="1">
          <mxGeometry x="510" y="530" width="60" height="70" as="geometry" />
        </mxCell>
        <mxCell id="R4QsOeEvtsYIWJrgmaSn-11" value="" style="endArrow=classic;startArrow=classic;html=1;rounded=0;entryX=0.5;entryY=0;entryDx=0;entryDy=0;exitX=0.925;exitY=1.05;exitDx=0;exitDy=0;exitPerimeter=0;" edge="1" parent="1" source="R4QsOeEvtsYIWJrgmaSn-1" target="R4QsOeEvtsYIWJrgmaSn-6">
          <mxGeometry width="50" height="50" relative="1" as="geometry">
            <mxPoint x="440" y="490" as="sourcePoint" />
            <mxPoint x="540" y="500" as="targetPoint" />
          </mxGeometry>
        </mxCell>
        <mxCell id="R4QsOeEvtsYIWJrgmaSn-13" value="" style="endArrow=classic;startArrow=classic;html=1;rounded=0;entryX=0.08;entryY=1.05;entryDx=0;entryDy=0;entryPerimeter=0;" edge="1" parent="1" target="R4QsOeEvtsYIWJrgmaSn-1">
          <mxGeometry width="50" height="50" relative="1" as="geometry">
            <mxPoint x="260" y="530" as="sourcePoint" />
            <mxPoint x="310" y="480" as="targetPoint" />
          </mxGeometry>
        </mxCell>
        <mxCell id="R4QsOeEvtsYIWJrgmaSn-14" value="" style="endArrow=classic;startArrow=classic;html=1;rounded=0;exitX=0.5;exitY=0;exitDx=0;exitDy=0;" edge="1" parent="1" source="R4QsOeEvtsYIWJrgmaSn-4">
          <mxGeometry width="50" height="50" relative="1" as="geometry">
            <mxPoint x="325" y="530" as="sourcePoint" />
            <mxPoint x="370" y="490" as="targetPoint" />
          </mxGeometry>
        </mxCell>
        <mxCell id="R4QsOeEvtsYIWJrgmaSn-15" value="" style="endArrow=classic;startArrow=classic;html=1;rounded=0;exitX=0.5;exitY=0;exitDx=0;exitDy=0;" edge="1" parent="1" source="R4QsOeEvtsYIWJrgmaSn-5">
          <mxGeometry width="50" height="50" relative="1" as="geometry">
            <mxPoint x="389" y="540" as="sourcePoint" />
            <mxPoint x="439" y="490" as="targetPoint" />
          </mxGeometry>
        </mxCell>
        <mxCell id="R4QsOeEvtsYIWJrgmaSn-16" value="internet gateway" style="rounded=0;whiteSpace=wrap;html=1;" vertex="1" parent="1">
          <mxGeometry x="360" y="260" width="120" height="60" as="geometry" />
        </mxCell>
        <mxCell id="R4QsOeEvtsYIWJrgmaSn-17" value="data base" style="rounded=1;whiteSpace=wrap;html=1;" vertex="1" parent="1">
          <mxGeometry x="330" y="640" width="160" height="110" as="geometry" />
        </mxCell>
        <mxCell id="R4QsOeEvtsYIWJrgmaSn-18" value="" style="endArrow=classic;startArrow=classic;html=1;rounded=0;exitX=0.25;exitY=0;exitDx=0;exitDy=0;" edge="1" parent="1" source="R4QsOeEvtsYIWJrgmaSn-17">
          <mxGeometry width="50" height="50" relative="1" as="geometry">
            <mxPoint x="240" y="650" as="sourcePoint" />
            <mxPoint x="290" y="600" as="targetPoint" />
          </mxGeometry>
        </mxCell>
        <mxCell id="R4QsOeEvtsYIWJrgmaSn-19" value="" style="endArrow=classic;startArrow=classic;html=1;rounded=0;exitX=0.5;exitY=0;exitDx=0;exitDy=0;" edge="1" parent="1" source="R4QsOeEvtsYIWJrgmaSn-17">
          <mxGeometry width="50" height="50" relative="1" as="geometry">
            <mxPoint x="320" y="650" as="sourcePoint" />
            <mxPoint x="370" y="600" as="targetPoint" />
          </mxGeometry>
        </mxCell>
        <mxCell id="R4QsOeEvtsYIWJrgmaSn-20" value="" style="endArrow=classic;startArrow=classic;html=1;rounded=0;exitX=0.75;exitY=0;exitDx=0;exitDy=0;" edge="1" parent="1" source="R4QsOeEvtsYIWJrgmaSn-17">
          <mxGeometry width="50" height="50" relative="1" as="geometry">
            <mxPoint x="400" y="650" as="sourcePoint" />
            <mxPoint x="450" y="600" as="targetPoint" />
          </mxGeometry>
        </mxCell>
        <mxCell id="R4QsOeEvtsYIWJrgmaSn-21" value="" style="endArrow=classic;startArrow=classic;html=1;rounded=0;exitX=1;exitY=0;exitDx=0;exitDy=0;" edge="1" parent="1" source="R4QsOeEvtsYIWJrgmaSn-17">
          <mxGeometry width="50" height="50" relative="1" as="geometry">
            <mxPoint x="480" y="650" as="sourcePoint" />
            <mxPoint x="530" y="600" as="targetPoint" />
          </mxGeometry>
        </mxCell>
        <mxCell id="R4QsOeEvtsYIWJrgmaSn-22" value="" style="endArrow=classic;html=1;rounded=0;entryX=0.5;entryY=1;entryDx=0;entryDy=0;exitX=0.5;exitY=0;exitDx=0;exitDy=0;" edge="1" parent="1" source="R4QsOeEvtsYIWJrgmaSn-1" target="R4QsOeEvtsYIWJrgmaSn-16">
          <mxGeometry width="50" height="50" relative="1" as="geometry">
            <mxPoint x="390" y="430" as="sourcePoint" />
            <mxPoint x="440" y="380" as="targetPoint" />
          </mxGeometry>
        </mxCell>
      </root>
    </mxGraphModel>
  </diagram>
</mxfile>
